STARTFONT 2.1
FONT -windows-ProggySquare-medium-r-normal--11-80-96-96-c-70-ISO10646-1
SIZE 8 96 96
FONTBOUNDINGBOX 7 11 0 -2
COMMENT "Generated by fontforge, http://fontforge.sourceforge.net"
STARTPROPERTIES 8
CAP_HEIGHT 9
POINT_SIZE 80
WEIGHT 10
RESOLUTION 132
RESOLUTION_X 96
RESOLUTION_Y 96
X_HEIGHT 0
QUAD_WIDTH 7
ENDPROPERTIES
CHARS 246
STARTCHAR $10
ENCODING 10
SWIDTH 7000 0
DWIDTH 7 0
BBX 1 1 6 -2
BITMAP
00
ENDCHAR
STARTCHAR $11
ENCODING 11
SWIDTH 7000 0
DWIDTH 7 0
BBX 1 1 6 -2
BITMAP
00
ENDCHAR
STARTCHAR $12
ENCODING 12
SWIDTH 7000 0
DWIDTH 7 0
BBX 1 1 6 -2
BITMAP
00
ENDCHAR
STARTCHAR $13
ENCODING 13
SWIDTH 7000 0
DWIDTH 7 0
BBX 1 1 6 -2
BITMAP
00
ENDCHAR
STARTCHAR $14
ENCODING 14
SWIDTH 7000 0
DWIDTH 7 0
BBX 1 1 6 -2
BITMAP
00
ENDCHAR
STARTCHAR $15
ENCODING 15
SWIDTH 7000 0
DWIDTH 7 0
BBX 1 1 6 -2
BITMAP
00
ENDCHAR
STARTCHAR $16
ENCODING 16
SWIDTH 7000 0
DWIDTH 7 0
BBX 1 1 6 -2
BITMAP
00
ENDCHAR
STARTCHAR $17
ENCODING 17
SWIDTH 7000 0
DWIDTH 7 0
BBX 1 1 6 -2
BITMAP
00
ENDCHAR
STARTCHAR $18
ENCODING 18
SWIDTH 7000 0
DWIDTH 7 0
BBX 1 1 6 -2
BITMAP
00
ENDCHAR
STARTCHAR $19
ENCODING 19
SWIDTH 7000 0
DWIDTH 7 0
BBX 1 1 6 -2
BITMAP
00
ENDCHAR
STARTCHAR $20
ENCODING 20
SWIDTH 7000 0
DWIDTH 7 0
BBX 1 1 6 -2
BITMAP
00
ENDCHAR
STARTCHAR $21
ENCODING 21
SWIDTH 7000 0
DWIDTH 7 0
BBX 1 1 6 -2
BITMAP
00
ENDCHAR
STARTCHAR $22
ENCODING 22
SWIDTH 7000 0
DWIDTH 7 0
BBX 1 1 6 -2
BITMAP
00
ENDCHAR
STARTCHAR $23
ENCODING 23
SWIDTH 7000 0
DWIDTH 7 0
BBX 1 1 6 -2
BITMAP
00
ENDCHAR
STARTCHAR $24
ENCODING 24
SWIDTH 7000 0
DWIDTH 7 0
BBX 1 1 6 -2
BITMAP
00
ENDCHAR
STARTCHAR $25
ENCODING 25
SWIDTH 7000 0
DWIDTH 7 0
BBX 1 1 6 -2
BITMAP
00
ENDCHAR
STARTCHAR $26
ENCODING 26
SWIDTH 7000 0
DWIDTH 7 0
BBX 1 1 6 -2
BITMAP
00
ENDCHAR
STARTCHAR $27
ENCODING 27
SWIDTH 7000 0
DWIDTH 7 0
BBX 1 1 6 -2
BITMAP
00
ENDCHAR
STARTCHAR $28
ENCODING 28
SWIDTH 7000 0
DWIDTH 7 0
BBX 1 1 6 -2
BITMAP
00
ENDCHAR
STARTCHAR $29
ENCODING 29
SWIDTH 7000 0
DWIDTH 7 0
BBX 1 1 6 -2
BITMAP
00
ENDCHAR
STARTCHAR $30
ENCODING 30
SWIDTH 7000 0
DWIDTH 7 0
BBX 1 1 6 -2
BITMAP
00
ENDCHAR
STARTCHAR $31
ENCODING 31
SWIDTH 7000 0
DWIDTH 7 0
BBX 1 1 6 -2
BITMAP
00
ENDCHAR
STARTCHAR $32
ENCODING 32
SWIDTH 7000 0
DWIDTH 7 0
BBX 1 1 6 -2
BITMAP
00
ENDCHAR
STARTCHAR $33
ENCODING 33
SWIDTH 7000 0
DWIDTH 7 0
BBX 1 7 3 0
BITMAP
80
80
80
80
80
00
80
ENDCHAR
STARTCHAR $34
ENCODING 34
SWIDTH 7000 0
DWIDTH 7 0
BBX 3 3 2 5
BITMAP
A0
A0
A0
ENDCHAR
STARTCHAR $35
ENCODING 35
SWIDTH 7000 0
DWIDTH 7 0
BBX 7 8 0 0
BITMAP
14
14
7E
28
28
FC
50
50
ENDCHAR
STARTCHAR $36
ENCODING 36
SWIDTH 7000 0
DWIDTH 7 0
BBX 5 9 1 -1
BITMAP
20
78
A0
A0
70
28
28
F0
20
ENDCHAR
STARTCHAR $37
ENCODING 37
SWIDTH 7000 0
DWIDTH 7 0
BBX 7 7 0 0
BITMAP
42
A4
A8
54
2A
4A
84
ENDCHAR
STARTCHAR $38
ENCODING 38
SWIDTH 7000 0
DWIDTH 7 0
BBX 6 8 1 0
BITMAP
60
90
90
64
94
88
88
74
ENDCHAR
STARTCHAR $39
ENCODING 39
SWIDTH 7000 0
DWIDTH 7 0
BBX 1 3 3 5
BITMAP
80
80
80
ENDCHAR
STARTCHAR $40
ENCODING 40
SWIDTH 7000 0
DWIDTH 7 0
BBX 3 11 2 -2
BITMAP
20
40
40
80
80
80
80
80
40
40
20
ENDCHAR
STARTCHAR $41
ENCODING 41
SWIDTH 7000 0
DWIDTH 7 0
BBX 3 11 2 -2
BITMAP
80
40
40
20
20
20
20
20
40
40
80
ENDCHAR
STARTCHAR $42
ENCODING 42
SWIDTH 7000 0
DWIDTH 7 0
BBX 5 5 1 1
BITMAP
20
A8
70
A8
20
ENDCHAR
STARTCHAR $43
ENCODING 43
SWIDTH 7000 0
DWIDTH 7 0
BBX 5 5 1 1
BITMAP
20
20
F8
20
20
ENDCHAR
STARTCHAR $44
ENCODING 44
SWIDTH 7000 0
DWIDTH 7 0
BBX 2 4 1 -2
BITMAP
40
40
40
80
ENDCHAR
STARTCHAR $45
ENCODING 45
SWIDTH 7000 0
DWIDTH 7 0
BBX 5 1 1 3
BITMAP
F8
ENDCHAR
STARTCHAR $46
ENCODING 46
SWIDTH 7000 0
DWIDTH 7 0
BBX 1 2 2 0
BITMAP
80
80
ENDCHAR
STARTCHAR $47
ENCODING 47
SWIDTH 7000 0
DWIDTH 7 0
BBX 5 10 1 -1
BITMAP
08
08
10
10
20
20
40
40
80
80
ENDCHAR
STARTCHAR $48
ENCODING 48
SWIDTH 7000 0
DWIDTH 7 0
BBX 5 8 1 0
BITMAP
70
88
88
A8
A8
88
88
70
ENDCHAR
STARTCHAR $49
ENCODING 49
SWIDTH 7000 0
DWIDTH 7 0
BBX 5 8 1 0
BITMAP
20
60
A0
20
20
20
20
F8
ENDCHAR
STARTCHAR $50
ENCODING 50
SWIDTH 7000 0
DWIDTH 7 0
BBX 5 8 1 0
BITMAP
F0
08
08
10
20
40
80
F8
ENDCHAR
STARTCHAR $51
ENCODING 51
SWIDTH 7000 0
DWIDTH 7 0
BBX 5 8 1 0
BITMAP
F0
08
08
30
08
08
08
F0
ENDCHAR
STARTCHAR $52
ENCODING 52
SWIDTH 7000 0
DWIDTH 7 0
BBX 6 8 1 0
BITMAP
08
18
28
48
88
FC
08
08
ENDCHAR
STARTCHAR $53
ENCODING 53
SWIDTH 7000 0
DWIDTH 7 0
BBX 5 8 1 0
BITMAP
F8
80
80
F0
08
08
88
70
ENDCHAR
STARTCHAR $54
ENCODING 54
SWIDTH 7000 0
DWIDTH 7 0
BBX 5 8 1 0
BITMAP
70
80
80
F0
88
88
88
70
ENDCHAR
STARTCHAR $55
ENCODING 55
SWIDTH 7000 0
DWIDTH 7 0
BBX 5 8 1 0
BITMAP
F8
08
10
10
20
20
40
40
ENDCHAR
STARTCHAR $56
ENCODING 56
SWIDTH 7000 0
DWIDTH 7 0
BBX 5 8 1 0
BITMAP
70
88
88
70
88
88
88
70
ENDCHAR
STARTCHAR $57
ENCODING 57
SWIDTH 7000 0
DWIDTH 7 0
BBX 5 8 1 0
BITMAP
70
88
88
88
78
08
08
70
ENDCHAR
STARTCHAR $58
ENCODING 58
SWIDTH 7000 0
DWIDTH 7 0
BBX 1 6 3 0
BITMAP
80
80
00
00
80
80
ENDCHAR
STARTCHAR $59
ENCODING 59
SWIDTH 7000 0
DWIDTH 7 0
BBX 2 8 1 -2
BITMAP
40
40
00
00
40
40
40
80
ENDCHAR
STARTCHAR $60
ENCODING 60
SWIDTH 7000 0
DWIDTH 7 0
BBX 6 5 0 1
BITMAP
0C
30
C0
30
0C
ENDCHAR
STARTCHAR $61
ENCODING 61
SWIDTH 7000 0
DWIDTH 7 0
BBX 6 3 1 2
BITMAP
FC
00
FC
ENDCHAR
STARTCHAR $62
ENCODING 62
SWIDTH 7000 0
DWIDTH 7 0
BBX 6 5 1 1
BITMAP
C0
30
0C
30
C0
ENDCHAR
STARTCHAR $63
ENCODING 63
SWIDTH 7000 0
DWIDTH 7 0
BBX 5 8 1 0
BITMAP
70
88
08
10
20
20
00
20
ENDCHAR
STARTCHAR $64
ENCODING 64
SWIDTH 7000 0
DWIDTH 7 0
BBX 7 8 0 0
BITMAP
38
44
9A
AA
AA
9C
40
3C
ENDCHAR
STARTCHAR $65
ENCODING 65
SWIDTH 7000 0
DWIDTH 7 0
BBX 5 8 1 0
BITMAP
70
88
88
88
F8
88
88
88
ENDCHAR
STARTCHAR $66
ENCODING 66
SWIDTH 7000 0
DWIDTH 7 0
BBX 5 8 1 0
BITMAP
F0
88
88
F0
88
88
88
F0
ENDCHAR
STARTCHAR $67
ENCODING 67
SWIDTH 7000 0
DWIDTH 7 0
BBX 5 8 1 0
BITMAP
78
80
80
80
80
80
80
78
ENDCHAR
STARTCHAR $68
ENCODING 68
SWIDTH 7000 0
DWIDTH 7 0
BBX 5 8 1 0
BITMAP
F0
88
88
88
88
88
88
F0
ENDCHAR
STARTCHAR $69
ENCODING 69
SWIDTH 7000 0
DWIDTH 7 0
BBX 5 8 1 0
BITMAP
F8
80
80
F0
80
80
80
F8
ENDCHAR
STARTCHAR $70
ENCODING 70
SWIDTH 7000 0
DWIDTH 7 0
BBX 5 8 1 0
BITMAP
F8
80
80
F0
80
80
80
80
ENDCHAR
STARTCHAR $71
ENCODING 71
SWIDTH 7000 0
DWIDTH 7 0
BBX 5 8 1 0
BITMAP
78
80
80
80
98
88
88
78
ENDCHAR
STARTCHAR $72
ENCODING 72
SWIDTH 7000 0
DWIDTH 7 0
BBX 5 8 1 0
BITMAP
88
88
88
F8
88
88
88
88
ENDCHAR
STARTCHAR $73
ENCODING 73
SWIDTH 7000 0
DWIDTH 7 0
BBX 3 8 2 0
BITMAP
E0
40
40
40
40
40
40
E0
ENDCHAR
STARTCHAR $74
ENCODING 74
SWIDTH 7000 0
DWIDTH 7 0
BBX 4 8 1 0
BITMAP
70
10
10
10
10
10
10
E0
ENDCHAR
STARTCHAR $75
ENCODING 75
SWIDTH 7000 0
DWIDTH 7 0
BBX 6 8 1 0
BITMAP
84
88
90
A0
E0
90
88
84
ENDCHAR
STARTCHAR $76
ENCODING 76
SWIDTH 7000 0
DWIDTH 7 0
BBX 5 8 1 0
BITMAP
80
80
80
80
80
80
80
F8
ENDCHAR
STARTCHAR $77
ENCODING 77
SWIDTH 7000 0
DWIDTH 7 0
BBX 7 8 0 0
BITMAP
C6
C6
AA
AA
92
92
82
82
ENDCHAR
STARTCHAR $78
ENCODING 78
SWIDTH 7000 0
DWIDTH 7 0
BBX 5 8 1 0
BITMAP
88
C8
C8
A8
A8
98
98
88
ENDCHAR
STARTCHAR $79
ENCODING 79
SWIDTH 7000 0
DWIDTH 7 0
BBX 5 8 1 0
BITMAP
70
88
88
88
88
88
88
70
ENDCHAR
STARTCHAR $80
ENCODING 80
SWIDTH 7000 0
DWIDTH 7 0
BBX 5 8 1 0
BITMAP
F0
88
88
88
F0
80
80
80
ENDCHAR
STARTCHAR $81
ENCODING 81
SWIDTH 7000 0
DWIDTH 7 0
BBX 6 9 1 -1
BITMAP
70
88
88
88
88
88
88
70
0C
ENDCHAR
STARTCHAR $82
ENCODING 82
SWIDTH 7000 0
DWIDTH 7 0
BBX 5 8 1 0
BITMAP
F0
88
88
88
F0
88
88
88
ENDCHAR
STARTCHAR $83
ENCODING 83
SWIDTH 7000 0
DWIDTH 7 0
BBX 5 8 1 0
BITMAP
78
80
80
70
08
08
08
F0
ENDCHAR
STARTCHAR $84
ENCODING 84
SWIDTH 7000 0
DWIDTH 7 0
BBX 7 8 0 0
BITMAP
FE
10
10
10
10
10
10
10
ENDCHAR
STARTCHAR $85
ENCODING 85
SWIDTH 7000 0
DWIDTH 7 0
BBX 5 8 1 0
BITMAP
88
88
88
88
88
88
88
70
ENDCHAR
STARTCHAR $86
ENCODING 86
SWIDTH 7000 0
DWIDTH 7 0
BBX 7 8 0 0
BITMAP
82
82
44
44
28
28
10
10
ENDCHAR
STARTCHAR $87
ENCODING 87
SWIDTH 7000 0
DWIDTH 7 0
BBX 7 8 0 0
BITMAP
82
92
92
AA
AA
6C
44
44
ENDCHAR
STARTCHAR $88
ENCODING 88
SWIDTH 7000 0
DWIDTH 7 0
BBX 6 8 1 0
BITMAP
84
84
48
30
30
48
84
84
ENDCHAR
STARTCHAR $89
ENCODING 89
SWIDTH 7000 0
DWIDTH 7 0
BBX 7 8 0 0
BITMAP
82
82
44
28
10
10
10
10
ENDCHAR
STARTCHAR $90
ENCODING 90
SWIDTH 7000 0
DWIDTH 7 0
BBX 6 8 1 0
BITMAP
FC
04
08
10
20
40
80
FC
ENDCHAR
STARTCHAR $91
ENCODING 91
SWIDTH 7000 0
DWIDTH 7 0
BBX 3 10 2 -1
BITMAP
E0
80
80
80
80
80
80
80
80
E0
ENDCHAR
STARTCHAR $92
ENCODING 92
SWIDTH 7000 0
DWIDTH 7 0
BBX 5 10 1 -1
BITMAP
80
80
40
40
20
20
10
10
08
08
ENDCHAR
STARTCHAR $93
ENCODING 93
SWIDTH 7000 0
DWIDTH 7 0
BBX 3 10 2 -1
BITMAP
E0
20
20
20
20
20
20
20
20
E0
ENDCHAR
STARTCHAR $94
ENCODING 94
SWIDTH 7000 0
DWIDTH 7 0
BBX 5 6 1 2
BITMAP
20
20
50
50
88
88
ENDCHAR
STARTCHAR $95
ENCODING 95
SWIDTH 7000 0
DWIDTH 7 0
BBX 7 1 0 -1
BITMAP
FE
ENDCHAR
STARTCHAR $96
ENCODING 96
SWIDTH 7000 0
DWIDTH 7 0
BBX 2 2 2 7
BITMAP
80
40
ENDCHAR
STARTCHAR $97
ENCODING 97
SWIDTH 7000 0
DWIDTH 7 0
BBX 5 6 1 0
BITMAP
70
08
78
88
88
78
ENDCHAR
STARTCHAR $98
ENCODING 98
SWIDTH 7000 0
DWIDTH 7 0
BBX 5 8 1 0
BITMAP
80
80
F0
88
88
88
88
F0
ENDCHAR
STARTCHAR $99
ENCODING 99
SWIDTH 7000 0
DWIDTH 7 0
BBX 5 6 1 0
BITMAP
78
80
80
80
80
78
ENDCHAR
STARTCHAR $100
ENCODING 100
SWIDTH 7000 0
DWIDTH 7 0
BBX 5 8 1 0
BITMAP
08
08
78
88
88
88
88
78
ENDCHAR
STARTCHAR $101
ENCODING 101
SWIDTH 7000 0
DWIDTH 7 0
BBX 5 6 1 0
BITMAP
70
88
F8
80
80
70
ENDCHAR
STARTCHAR $102
ENCODING 102
SWIDTH 7000 0
DWIDTH 7 0
BBX 5 8 1 0
BITMAP
38
40
40
F0
40
40
40
40
ENDCHAR
STARTCHAR $103
ENCODING 103
SWIDTH 7000 0
DWIDTH 7 0
BBX 5 8 1 -2
BITMAP
78
88
88
88
88
78
08
70
ENDCHAR
STARTCHAR $104
ENCODING 104
SWIDTH 7000 0
DWIDTH 7 0
BBX 5 8 1 0
BITMAP
80
80
F0
88
88
88
88
88
ENDCHAR
STARTCHAR $105
ENCODING 105
SWIDTH 7000 0
DWIDTH 7 0
BBX 2 8 2 0
BITMAP
40
00
C0
40
40
40
40
40
ENDCHAR
STARTCHAR $106
ENCODING 106
SWIDTH 7000 0
DWIDTH 7 0
BBX 4 10 1 -2
BITMAP
10
00
30
10
10
10
10
10
10
E0
ENDCHAR
STARTCHAR $107
ENCODING 107
SWIDTH 7000 0
DWIDTH 7 0
BBX 5 8 1 0
BITMAP
80
80
88
90
A0
E0
90
88
ENDCHAR
STARTCHAR $108
ENCODING 108
SWIDTH 7000 0
DWIDTH 7 0
BBX 2 8 2 0
BITMAP
C0
40
40
40
40
40
40
40
ENDCHAR
STARTCHAR $109
ENCODING 109
SWIDTH 7000 0
DWIDTH 7 0
BBX 7 6 0 0
BITMAP
EC
92
92
92
92
92
ENDCHAR
STARTCHAR $110
ENCODING 110
SWIDTH 7000 0
DWIDTH 7 0
BBX 5 6 1 0
BITMAP
F0
88
88
88
88
88
ENDCHAR
STARTCHAR $111
ENCODING 111
SWIDTH 7000 0
DWIDTH 7 0
BBX 5 6 1 0
BITMAP
70
88
88
88
88
70
ENDCHAR
STARTCHAR $112
ENCODING 112
SWIDTH 7000 0
DWIDTH 7 0
BBX 5 8 1 -2
BITMAP
F0
88
88
88
88
F0
80
80
ENDCHAR
STARTCHAR $113
ENCODING 113
SWIDTH 7000 0
DWIDTH 7 0
BBX 5 8 1 -2
BITMAP
78
88
88
88
88
78
08
08
ENDCHAR
STARTCHAR $114
ENCODING 114
SWIDTH 7000 0
DWIDTH 7 0
BBX 5 6 1 0
BITMAP
B0
C8
80
80
80
80
ENDCHAR
STARTCHAR $115
ENCODING 115
SWIDTH 7000 0
DWIDTH 7 0
BBX 4 6 1 0
BITMAP
70
80
C0
30
10
E0
ENDCHAR
STARTCHAR $116
ENCODING 116
SWIDTH 7000 0
DWIDTH 7 0
BBX 4 8 2 0
BITMAP
80
80
F0
80
80
80
80
70
ENDCHAR
STARTCHAR $117
ENCODING 117
SWIDTH 7000 0
DWIDTH 7 0
BBX 5 6 1 0
BITMAP
88
88
88
88
88
78
ENDCHAR
STARTCHAR $118
ENCODING 118
SWIDTH 7000 0
DWIDTH 7 0
BBX 5 6 1 0
BITMAP
88
88
50
50
20
20
ENDCHAR
STARTCHAR $119
ENCODING 119
SWIDTH 7000 0
DWIDTH 7 0
BBX 7 6 0 0
BITMAP
82
92
92
AA
6C
44
ENDCHAR
STARTCHAR $120
ENCODING 120
SWIDTH 7000 0
DWIDTH 7 0
BBX 5 6 1 0
BITMAP
88
50
20
20
50
88
ENDCHAR
STARTCHAR $121
ENCODING 121
SWIDTH 7000 0
DWIDTH 7 0
BBX 5 8 1 -2
BITMAP
88
88
88
88
88
78
08
70
ENDCHAR
STARTCHAR $122
ENCODING 122
SWIDTH 7000 0
DWIDTH 7 0
BBX 5 6 1 0
BITMAP
F8
08
10
20
40
F8
ENDCHAR
STARTCHAR $123
ENCODING 123
SWIDTH 7000 0
DWIDTH 7 0
BBX 4 11 1 -2
BITMAP
30
40
40
40
40
80
40
40
40
40
30
ENDCHAR
STARTCHAR $124
ENCODING 124
SWIDTH 7000 0
DWIDTH 7 0
BBX 1 10 3 -2
BITMAP
80
80
80
80
80
80
80
80
80
80
ENDCHAR
STARTCHAR $125
ENCODING 125
SWIDTH 7000 0
DWIDTH 7 0
BBX 4 11 1 -2
BITMAP
C0
20
20
20
20
10
20
20
20
20
C0
ENDCHAR
STARTCHAR $126
ENCODING 126
SWIDTH 7000 0
DWIDTH 7 0
BBX 7 2 0 2
BITMAP
72
9C
ENDCHAR
STARTCHAR $127
ENCODING 127
SWIDTH 7000 0
DWIDTH 7 0
BBX 1 1 6 -2
BITMAP
00
ENDCHAR
STARTCHAR $128
ENCODING -1
SWIDTH 7000 0
DWIDTH 7 0
BBX 6 7 0 0
BITMAP
38
44
F0
40
F0
44
38
ENDCHAR
STARTCHAR $129
ENCODING -1
SWIDTH 7000 0
DWIDTH 7 0
BBX 1 1 6 -2
BITMAP
00
ENDCHAR
STARTCHAR $130
ENCODING -1
SWIDTH 7000 0
DWIDTH 7 0
BBX 2 3 2 -1
BITMAP
40
40
80
ENDCHAR
STARTCHAR $131
ENCODING -1
SWIDTH 7000 0
DWIDTH 7 0
BBX 4 11 2 -2
BITMAP
30
40
40
F0
40
40
40
40
40
40
80
ENDCHAR
STARTCHAR $132
ENCODING -1
SWIDTH 7000 0
DWIDTH 7 0
BBX 3 3 2 -1
BITMAP
A0
A0
A0
ENDCHAR
STARTCHAR $133
ENCODING -1
SWIDTH 7000 0
DWIDTH 7 0
BBX 5 1 1 0
BITMAP
A8
ENDCHAR
STARTCHAR $134
ENCODING -1
SWIDTH 7000 0
DWIDTH 7 0
BBX 5 9 1 -1
BITMAP
20
20
20
F8
20
20
20
20
20
ENDCHAR
STARTCHAR $135
ENCODING -1
SWIDTH 7000 0
DWIDTH 7 0
BBX 5 9 1 -1
BITMAP
20
20
F8
20
F8
20
20
20
20
ENDCHAR
STARTCHAR $136
ENCODING -1
SWIDTH 7000 0
DWIDTH 7 0
BBX 5 3 1 5
BITMAP
20
50
88
ENDCHAR
STARTCHAR $137
ENCODING -1
SWIDTH 7000 0
DWIDTH 7 0
BBX 6 8 1 0
BITMAP
10
90
A0
20
40
54
94
80
ENDCHAR
STARTCHAR $138
ENCODING -1
SWIDTH 7000 0
DWIDTH 7 0
BBX 5 9 1 0
BITMAP
50
20
78
80
80
70
08
08
F0
ENDCHAR
STARTCHAR $139
ENCODING -1
SWIDTH 7000 0
DWIDTH 7 0
BBX 3 5 1 1
BITMAP
20
40
80
40
20
ENDCHAR
STARTCHAR $140
ENCODING -1
SWIDTH 7000 0
DWIDTH 7 0
BBX 7 7 0 0
BITMAP
6E
90
90
9C
90
90
6E
ENDCHAR
STARTCHAR $141
ENCODING -1
SWIDTH 7000 0
DWIDTH 7 0
BBX 1 1 6 -2
BITMAP
00
ENDCHAR
STARTCHAR $142
ENCODING -1
SWIDTH 7000 0
DWIDTH 7 0
BBX 6 9 1 0
BITMAP
50
20
FC
04
08
10
20
40
FC
ENDCHAR
STARTCHAR $143
ENCODING -1
SWIDTH 7000 0
DWIDTH 7 0
BBX 1 1 6 -2
BITMAP
00
ENDCHAR
STARTCHAR $144
ENCODING -1
SWIDTH 7000 0
DWIDTH 7 0
BBX 1 1 6 -2
BITMAP
00
ENDCHAR
STARTCHAR $145
ENCODING -1
SWIDTH 7000 0
DWIDTH 7 0
BBX 2 3 3 5
BITMAP
80
80
40
ENDCHAR
STARTCHAR $146
ENCODING -1
SWIDTH 7000 0
DWIDTH 7 0
BBX 2 3 2 5
BITMAP
40
40
80
ENDCHAR
STARTCHAR $147
ENCODING -1
SWIDTH 7000 0
DWIDTH 7 0
BBX 4 3 2 5
BITMAP
A0
A0
50
ENDCHAR
STARTCHAR $148
ENCODING -1
SWIDTH 7000 0
DWIDTH 7 0
BBX 4 3 1 5
BITMAP
50
50
A0
ENDCHAR
STARTCHAR $149
ENCODING -1
SWIDTH 7000 0
DWIDTH 7 0
BBX 3 3 2 2
BITMAP
E0
E0
E0
ENDCHAR
STARTCHAR $150
ENCODING -1
SWIDTH 7000 0
DWIDTH 7 0
BBX 5 1 1 3
BITMAP
F8
ENDCHAR
STARTCHAR $151
ENCODING -1
SWIDTH 7000 0
DWIDTH 7 0
BBX 7 1 0 3
BITMAP
FE
ENDCHAR
STARTCHAR $152
ENCODING -1
SWIDTH 7000 0
DWIDTH 7 0
BBX 4 2 1 6
BITMAP
50
A0
ENDCHAR
STARTCHAR $153
ENCODING -1
SWIDTH 7000 0
DWIDTH 7 0
BBX 6 4 0 3
BITMAP
FC
5C
54
54
ENDCHAR
STARTCHAR $154
ENCODING -1
SWIDTH 7000 0
DWIDTH 7 0
BBX 4 9 1 0
BITMAP
50
20
00
70
80
C0
30
10
E0
ENDCHAR
STARTCHAR $155
ENCODING -1
SWIDTH 7000 0
DWIDTH 7 0
BBX 3 5 1 1
BITMAP
80
40
20
40
80
ENDCHAR
STARTCHAR $156
ENCODING -1
SWIDTH 7000 0
DWIDTH 7 0
BBX 7 6 0 0
BITMAP
6C
92
9E
90
92
6C
ENDCHAR
STARTCHAR $157
ENCODING -1
SWIDTH 7000 0
DWIDTH 7 0
BBX 1 1 6 -2
BITMAP
00
ENDCHAR
STARTCHAR $158
ENCODING -1
SWIDTH 7000 0
DWIDTH 7 0
BBX 5 9 1 0
BITMAP
50
20
00
F8
08
10
20
40
F8
ENDCHAR
STARTCHAR $159
ENCODING -1
SWIDTH 7000 0
DWIDTH 7 0
BBX 7 9 0 0
BITMAP
28
00
00
82
44
28
10
10
10
ENDCHAR
STARTCHAR $160
ENCODING -1
SWIDTH 7000 0
DWIDTH 7 0
BBX 1 1 6 -2
BITMAP
00
ENDCHAR
STARTCHAR $161
ENCODING -1
SWIDTH 7000 0
DWIDTH 7 0
BBX 1 7 3 0
BITMAP
80
00
80
80
80
80
80
ENDCHAR
STARTCHAR $162
ENCODING -1
SWIDTH 7000 0
DWIDTH 7 0
BBX 5 8 1 -1
BITMAP
20
78
A0
A0
A0
A0
78
20
ENDCHAR
STARTCHAR $163
ENCODING -1
SWIDTH 7000 0
DWIDTH 7 0
BBX 5 7 1 0
BITMAP
30
40
40
F0
40
40
F8
ENDCHAR
STARTCHAR $164
ENCODING -1
SWIDTH 7000 0
DWIDTH 7 0
BBX 5 5 1 1
BITMAP
88
70
50
70
88
ENDCHAR
STARTCHAR $165
ENCODING -1
SWIDTH 7000 0
DWIDTH 7 0
BBX 7 6 0 0
BITMAP
82
44
28
10
7C
10
ENDCHAR
STARTCHAR $166
ENCODING -1
SWIDTH 7000 0
DWIDTH 7 0
BBX 1 10 3 -2
BITMAP
80
80
80
80
00
00
80
80
80
80
ENDCHAR
STARTCHAR $167
ENCODING -1
SWIDTH 7000 0
DWIDTH 7 0
BBX 5 7 1 0
BITMAP
70
88
A0
50
28
88
70
ENDCHAR
STARTCHAR $168
ENCODING -1
SWIDTH 7000 0
DWIDTH 7 0
BBX 3 1 2 7
BITMAP
A0
ENDCHAR
STARTCHAR $169
ENCODING -1
SWIDTH 7000 0
DWIDTH 7 0
BBX 7 8 0 0
BITMAP
7C
82
9A
A2
A2
9A
82
7C
ENDCHAR
STARTCHAR $170
ENCODING -1
SWIDTH 7000 0
DWIDTH 7 0
BBX 4 5 1 2
BITMAP
60
10
70
90
70
ENDCHAR
STARTCHAR $171
ENCODING -1
SWIDTH 7000 0
DWIDTH 7 0
BBX 5 5 1 1
BITMAP
28
50
A0
50
28
ENDCHAR
STARTCHAR $172
ENCODING -1
SWIDTH 7000 0
DWIDTH 7 0
BBX 4 4 1 0
BITMAP
F0
10
10
10
ENDCHAR
STARTCHAR $173
ENCODING -1
SWIDTH 7000 0
DWIDTH 7 0
BBX 1 1 6 -2
BITMAP
00
ENDCHAR
STARTCHAR $174
ENCODING -1
SWIDTH 7000 0
DWIDTH 7 0
BBX 7 8 0 0
BITMAP
7C
82
B2
AA
B2
AA
82
7C
ENDCHAR
STARTCHAR $175
ENCODING -1
SWIDTH 7000 0
DWIDTH 7 0
BBX 7 1 0 8
BITMAP
FE
ENDCHAR
STARTCHAR $176
ENCODING -1
SWIDTH 7000 0
DWIDTH 7 0
BBX 3 3 1 5
BITMAP
40
A0
40
ENDCHAR
STARTCHAR $177
ENCODING -1
SWIDTH 7000 0
DWIDTH 7 0
BBX 5 7 1 0
BITMAP
20
20
F8
20
20
00
F8
ENDCHAR
STARTCHAR $178
ENCODING -1
SWIDTH 7000 0
DWIDTH 7 0
BBX 3 5 1 3
BITMAP
E0
20
E0
80
E0
ENDCHAR
STARTCHAR $179
ENCODING -1
SWIDTH 7000 0
DWIDTH 7 0
BBX 3 5 1 3
BITMAP
E0
20
60
20
E0
ENDCHAR
STARTCHAR $180
ENCODING -1
SWIDTH 7000 0
DWIDTH 7 0
BBX 2 2 3 6
BITMAP
40
80
ENDCHAR
STARTCHAR $181
ENCODING -1
SWIDTH 7000 0
DWIDTH 7 0
BBX 7 8 0 -2
BITMAP
44
44
44
64
64
5A
40
80
ENDCHAR
STARTCHAR $182
ENCODING -1
SWIDTH 7000 0
DWIDTH 7 0
BBX 6 8 1 -1
BITMAP
7C
E8
E8
68
28
28
28
28
ENDCHAR
STARTCHAR $183
ENCODING -1
SWIDTH 7000 0
DWIDTH 7 0
BBX 3 3 2 2
BITMAP
E0
E0
E0
ENDCHAR
STARTCHAR $184
ENCODING -1
SWIDTH 7000 0
DWIDTH 7 0
BBX 2 2 2 -2
BITMAP
C0
40
ENDCHAR
STARTCHAR $185
ENCODING -1
SWIDTH 7000 0
DWIDTH 7 0
BBX 3 5 1 3
BITMAP
40
C0
40
40
E0
ENDCHAR
STARTCHAR $186
ENCODING -1
SWIDTH 7000 0
DWIDTH 7 0
BBX 3 5 1 3
BITMAP
E0
A0
A0
A0
E0
ENDCHAR
STARTCHAR $187
ENCODING -1
SWIDTH 7000 0
DWIDTH 7 0
BBX 5 5 1 1
BITMAP
A0
50
28
50
A0
ENDCHAR
STARTCHAR $188
ENCODING -1
SWIDTH 7000 0
DWIDTH 7 0
BBX 6 8 1 0
BITMAP
90
90
A0
20
48
58
BC
88
ENDCHAR
STARTCHAR $189
ENCODING -1
SWIDTH 7000 0
DWIDTH 7 0
BBX 6 8 1 0
BITMAP
90
90
A0
20
5C
44
88
9C
ENDCHAR
STARTCHAR $190
ENCODING -1
SWIDTH 7000 0
DWIDTH 7 0
BBX 7 8 0 0
BITMAP
C8
68
D0
10
24
2C
5E
44
ENDCHAR
STARTCHAR $191
ENCODING -1
SWIDTH 7000 0
DWIDTH 7 0
BBX 5 8 1 0
BITMAP
20
00
20
20
40
80
88
70
ENDCHAR
STARTCHAR $192
ENCODING -1
SWIDTH 7000 0
DWIDTH 7 0
BBX 5 9 1 0
BITMAP
20
10
00
70
88
88
F8
88
88
ENDCHAR
STARTCHAR $193
ENCODING -1
SWIDTH 7000 0
DWIDTH 7 0
BBX 5 9 1 0
BITMAP
10
20
00
70
88
88
F8
88
88
ENDCHAR
STARTCHAR $194
ENCODING -1
SWIDTH 7000 0
DWIDTH 7 0
BBX 5 9 1 0
BITMAP
20
50
00
70
88
88
F8
88
88
ENDCHAR
STARTCHAR $195
ENCODING -1
SWIDTH 7000 0
DWIDTH 7 0
BBX 5 9 1 0
BITMAP
28
50
00
70
88
88
F8
88
88
ENDCHAR
STARTCHAR $196
ENCODING -1
SWIDTH 7000 0
DWIDTH 7 0
BBX 5 8 1 0
BITMAP
50
00
70
88
88
F8
88
88
ENDCHAR
STARTCHAR $197
ENCODING -1
SWIDTH 7000 0
DWIDTH 7 0
BBX 5 9 1 0
BITMAP
20
50
20
70
88
88
F8
88
88
ENDCHAR
STARTCHAR $198
ENCODING -1
SWIDTH 7000 0
DWIDTH 7 0
BBX 7 7 0 0
BITMAP
7E
90
90
FC
90
90
9E
ENDCHAR
STARTCHAR $199
ENCODING -1
SWIDTH 7000 0
DWIDTH 7 0
BBX 5 9 1 -2
BITMAP
78
80
80
80
80
80
78
10
20
ENDCHAR
STARTCHAR $200
ENCODING -1
SWIDTH 7000 0
DWIDTH 7 0
BBX 5 9 1 0
BITMAP
20
10
00
F8
80
F0
80
80
F8
ENDCHAR
STARTCHAR $201
ENCODING -1
SWIDTH 7000 0
DWIDTH 7 0
BBX 5 9 1 0
BITMAP
10
20
00
F8
80
F0
80
80
F8
ENDCHAR
STARTCHAR $202
ENCODING -1
SWIDTH 7000 0
DWIDTH 7 0
BBX 5 9 1 0
BITMAP
20
50
00
F8
80
F0
80
80
F8
ENDCHAR
STARTCHAR $203
ENCODING -1
SWIDTH 7000 0
DWIDTH 7 0
BBX 5 8 1 0
BITMAP
50
00
F8
80
F0
80
80
F8
ENDCHAR
STARTCHAR $204
ENCODING -1
SWIDTH 7000 0
DWIDTH 7 0
BBX 3 9 2 0
BITMAP
40
20
00
E0
40
40
40
40
E0
ENDCHAR
STARTCHAR $205
ENCODING -1
SWIDTH 7000 0
DWIDTH 7 0
BBX 3 9 2 0
BITMAP
20
40
00
E0
40
40
40
40
E0
ENDCHAR
STARTCHAR $206
ENCODING -1
SWIDTH 7000 0
DWIDTH 7 0
BBX 3 9 2 0
BITMAP
40
A0
00
E0
40
40
40
40
E0
ENDCHAR
STARTCHAR $207
ENCODING -1
SWIDTH 7000 0
DWIDTH 7 0
BBX 3 8 2 0
BITMAP
A0
00
E0
40
40
40
40
E0
ENDCHAR
STARTCHAR $208
ENCODING -1
SWIDTH 7000 0
DWIDTH 7 0
BBX 6 7 0 0
BITMAP
78
44
44
E4
44
44
78
ENDCHAR
STARTCHAR $209
ENCODING -1
SWIDTH 7000 0
DWIDTH 7 0
BBX 5 9 1 0
BITMAP
28
50
00
C8
C8
A8
A8
98
98
ENDCHAR
STARTCHAR $210
ENCODING -1
SWIDTH 7000 0
DWIDTH 7 0
BBX 5 9 1 0
BITMAP
20
10
00
70
88
88
88
88
70
ENDCHAR
STARTCHAR $211
ENCODING -1
SWIDTH 7000 0
DWIDTH 7 0
BBX 5 9 1 0
BITMAP
10
20
00
70
88
88
88
88
70
ENDCHAR
STARTCHAR $212
ENCODING -1
SWIDTH 7000 0
DWIDTH 7 0
BBX 5 9 1 0
BITMAP
20
50
00
70
88
88
88
88
70
ENDCHAR
STARTCHAR $213
ENCODING -1
SWIDTH 7000 0
DWIDTH 7 0
BBX 5 9 1 0
BITMAP
28
50
00
70
88
88
88
88
70
ENDCHAR
STARTCHAR $214
ENCODING -1
SWIDTH 7000 0
DWIDTH 7 0
BBX 5 8 1 0
BITMAP
50
00
70
88
88
88
88
70
ENDCHAR
STARTCHAR $215
ENCODING -1
SWIDTH 7000 0
DWIDTH 7 0
BBX 5 5 1 1
BITMAP
88
50
20
50
88
ENDCHAR
STARTCHAR $216
ENCODING -1
SWIDTH 7000 0
DWIDTH 7 0
BBX 7 8 0 0
BITMAP
3A
44
4C
54
54
64
44
B8
ENDCHAR
STARTCHAR $217
ENCODING -1
SWIDTH 7000 0
DWIDTH 7 0
BBX 5 9 1 0
BITMAP
20
10
00
88
88
88
88
88
70
ENDCHAR
STARTCHAR $218
ENCODING -1
SWIDTH 7000 0
DWIDTH 7 0
BBX 5 9 1 0
BITMAP
10
20
00
88
88
88
88
88
70
ENDCHAR
STARTCHAR $219
ENCODING -1
SWIDTH 7000 0
DWIDTH 7 0
BBX 5 9 1 0
BITMAP
20
50
00
88
88
88
88
88
70
ENDCHAR
STARTCHAR $220
ENCODING -1
SWIDTH 7000 0
DWIDTH 7 0
BBX 5 8 1 0
BITMAP
50
00
88
88
88
88
88
70
ENDCHAR
STARTCHAR $221
ENCODING -1
SWIDTH 7000 0
DWIDTH 7 0
BBX 7 9 0 0
BITMAP
08
10
00
82
44
28
10
10
10
ENDCHAR
STARTCHAR $222
ENCODING -1
SWIDTH 7000 0
DWIDTH 7 0
BBX 5 8 1 0
BITMAP
80
80
F0
88
88
F0
80
80
ENDCHAR
STARTCHAR $223
ENCODING -1
SWIDTH 7000 0
DWIDTH 7 0
BBX 7 9 0 -1
BITMAP
38
44
44
78
44
42
42
7C
80
ENDCHAR
STARTCHAR $224
ENCODING -1
SWIDTH 7000 0
DWIDTH 7 0
BBX 5 9 1 0
BITMAP
20
10
00
70
08
78
88
88
78
ENDCHAR
STARTCHAR $225
ENCODING -1
SWIDTH 7000 0
DWIDTH 7 0
BBX 5 9 1 0
BITMAP
10
20
00
70
08
78
88
88
78
ENDCHAR
STARTCHAR $226
ENCODING -1
SWIDTH 7000 0
DWIDTH 7 0
BBX 5 9 1 0
BITMAP
20
50
00
70
08
78
88
88
78
ENDCHAR
STARTCHAR $227
ENCODING -1
SWIDTH 7000 0
DWIDTH 7 0
BBX 5 9 1 0
BITMAP
28
50
00
70
08
78
88
88
78
ENDCHAR
STARTCHAR $228
ENCODING -1
SWIDTH 7000 0
DWIDTH 7 0
BBX 5 8 1 0
BITMAP
50
00
70
08
78
88
88
78
ENDCHAR
STARTCHAR $229
ENCODING -1
SWIDTH 7000 0
DWIDTH 7 0
BBX 5 9 1 0
BITMAP
20
50
20
70
08
78
88
88
78
ENDCHAR
STARTCHAR $230
ENCODING -1
SWIDTH 7000 0
DWIDTH 7 0
BBX 7 6 0 0
BITMAP
6C
12
7E
90
92
7C
ENDCHAR
STARTCHAR $231
ENCODING -1
SWIDTH 7000 0
DWIDTH 7 0
BBX 5 8 1 -2
BITMAP
78
80
80
80
80
78
10
20
ENDCHAR
STARTCHAR $232
ENCODING -1
SWIDTH 7000 0
DWIDTH 7 0
BBX 5 9 1 0
BITMAP
20
10
00
70
88
F8
80
80
70
ENDCHAR
STARTCHAR $233
ENCODING -1
SWIDTH 7000 0
DWIDTH 7 0
BBX 5 9 1 0
BITMAP
10
20
00
70
88
F8
80
80
70
ENDCHAR
STARTCHAR $234
ENCODING -1
SWIDTH 7000 0
DWIDTH 7 0
BBX 5 9 1 0
BITMAP
20
50
00
70
88
F8
80
80
70
ENDCHAR
STARTCHAR $235
ENCODING -1
SWIDTH 7000 0
DWIDTH 7 0
BBX 5 8 1 0
BITMAP
50
00
70
88
F8
80
80
70
ENDCHAR
STARTCHAR $236
ENCODING -1
SWIDTH 7000 0
DWIDTH 7 0
BBX 2 9 2 0
BITMAP
80
40
00
C0
40
40
40
40
40
ENDCHAR
STARTCHAR $237
ENCODING -1
SWIDTH 7000 0
DWIDTH 7 0
BBX 2 9 2 0
BITMAP
40
80
00
C0
40
40
40
40
40
ENDCHAR
STARTCHAR $238
ENCODING -1
SWIDTH 7000 0
DWIDTH 7 0
BBX 3 9 2 0
BITMAP
40
A0
00
C0
40
40
40
40
40
ENDCHAR
STARTCHAR $239
ENCODING -1
SWIDTH 7000 0
DWIDTH 7 0
BBX 3 8 2 0
BITMAP
A0
00
C0
40
40
40
40
40
ENDCHAR
STARTCHAR $240
ENCODING -1
SWIDTH 7000 0
DWIDTH 7 0
BBX 5 8 1 0
BITMAP
68
10
28
08
78
88
88
70
ENDCHAR
STARTCHAR $241
ENCODING -1
SWIDTH 7000 0
DWIDTH 7 0
BBX 5 9 1 0
BITMAP
28
50
00
F0
88
88
88
88
88
ENDCHAR
STARTCHAR $242
ENCODING -1
SWIDTH 7000 0
DWIDTH 7 0
BBX 5 9 1 0
BITMAP
20
10
00
70
88
88
88
88
70
ENDCHAR
STARTCHAR $243
ENCODING -1
SWIDTH 7000 0
DWIDTH 7 0
BBX 5 9 1 0
BITMAP
10
20
00
70
88
88
88
88
70
ENDCHAR
STARTCHAR $244
ENCODING -1
SWIDTH 7000 0
DWIDTH 7 0
BBX 5 9 1 0
BITMAP
20
50
00
70
88
88
88
88
70
ENDCHAR
STARTCHAR $245
ENCODING -1
SWIDTH 7000 0
DWIDTH 7 0
BBX 5 9 1 0
BITMAP
28
50
00
70
88
88
88
88
70
ENDCHAR
STARTCHAR $246
ENCODING -1
SWIDTH 7000 0
DWIDTH 7 0
BBX 5 8 1 0
BITMAP
50
00
70
88
88
88
88
70
ENDCHAR
STARTCHAR $247
ENCODING -1
SWIDTH 7000 0
DWIDTH 7 0
BBX 5 5 1 1
BITMAP
20
00
F8
00
20
ENDCHAR
STARTCHAR $248
ENCODING -1
SWIDTH 7000 0
DWIDTH 7 0
BBX 5 8 1 -1
BITMAP
08
70
98
A8
A8
C8
70
80
ENDCHAR
STARTCHAR $249
ENCODING -1
SWIDTH 7000 0
DWIDTH 7 0
BBX 5 9 1 0
BITMAP
20
10
00
88
88
88
88
88
78
ENDCHAR
STARTCHAR $250
ENCODING -1
SWIDTH 7000 0
DWIDTH 7 0
BBX 5 9 1 0
BITMAP
10
20
00
88
88
88
88
88
78
ENDCHAR
STARTCHAR $251
ENCODING -1
SWIDTH 7000 0
DWIDTH 7 0
BBX 5 9 1 0
BITMAP
20
50
00
88
88
88
88
88
78
ENDCHAR
STARTCHAR $252
ENCODING -1
SWIDTH 7000 0
DWIDTH 7 0
BBX 5 8 1 0
BITMAP
50
00
88
88
88
88
88
78
ENDCHAR
STARTCHAR $253
ENCODING -1
SWIDTH 7000 0
DWIDTH 7 0
BBX 5 11 1 -2
BITMAP
10
20
00
88
88
88
88
88
78
08
70
ENDCHAR
STARTCHAR $254
ENCODING -1
SWIDTH 7000 0
DWIDTH 7 0
BBX 5 10 1 -2
BITMAP
80
80
F0
88
88
88
88
F0
80
80
ENDCHAR
STARTCHAR $255
ENCODING -1
SWIDTH 7000 0
DWIDTH 7 0
BBX 5 10 1 -2
BITMAP
50
00
88
88
88
88
88
78
08
70
ENDCHAR
ENDFONT
